<svg xmlns="http://www.w3.org/2000/svg" viewBox="0 0 24 24">
  <path fill="#4285F4" d="M22.47 12.27c0-.6-.05-1.2-.15-1.78H12v3.57h5.88a4.28 4.28 0 01-1.86 2.81v2.3h2.96c1.73-1.6 2.73-3.96 2.73-6.7z"/>
  <path fill="#34A853" d="M12 23c3.24 0 5.95-1.07 7.93-2.9l-2.96-2.3c-.82.55-1.88.87-3.97.87-3.06 0-5.66-2.07-6.59-4.85H2.4v2.38c1.96 3.87 6.03 6.4 9.6 6.4z"/>
  <path fill="#FBBC05" d="M5.41 14.12a6.6 6.6 0 010-4.24V7.5h-2.99a11.48 11.48 0 000 8.99l2.99-2.37z"/>
  <path fill="#EA4335" d="M12 4.73c1.77 0 3.35.61 4.6 1.79l2.64-2.64C17.95 1.8 15.24.73 12 .73 8.37.73 4.3 3.26 2.34 7.13l2.99 2.37C6.34 7.8 8.94 5.73 12 5.73z"/>
</svg>
